# xmcd
#
# Track frame offsets:
#	150
#	9679
#	35324
#	59730
#	70137
#	109889
#	148933
#	179233
#	203214
#	229317
#	255267
#
# Disc length: 3778 seconds
#
# Revision: 1
# Processed by: cddbd v1.5.2PL0 Copyright (c) Steve Scherf et al.
# Submitted via: EasyCDDAExtractor 2010.6.0.0
#
DISCID=a80ec00b
DTITLE=Nagabuchi Tsuyoshi - Arena Tour 2010~2011_'TRY AGAIN'_Live At Yoyogi Na
DTITLE=tional Stadium
DYEAR=2011
DGENRE=J-POP
TTITLE0=いつものより道もどり道\nいつものより道もどり道\nいつものより道もどり道\nいつものより道もどり道 
TTITLE1=All Right
TTITLE2=電信柱に引っかけた夢
TTITLE3=とんぼ
TTITLE4=桜島 Sakurajima
TTITLE5=菊一輪の骨
TTITLE6=Try Again (part 1)
TTITLE7=Try Again (part 2)
TTITLE8=明日へ向かって 
TTITLE9=Hidden 1
TTITLE10=Hidden 2
EXTD=
EXTT0=
EXTT1=
EXTT2=
EXTT3=
EXTT4=
EXTT5=
EXTT6=
EXTT7=
EXTT8=
EXTT9=
EXTT10=
PLAYORDER=
